<svg xmlns="http://www.w3.org/2000/svg" viewBox="0 0 512 512">
  <defs>
    <linearGradient id="bg" x1="0%" y1="0%" x2="100%" y2="100%">
      <stop offset="0%" style="stop-color:#059669"/>
      <stop offset="100%" style="stop-color:#10b981"/>
    </linearGradient>
  </defs>
  <rect width="512" height="512" rx="96" ry="96" fill="url(#bg)"/>
  <g transform="translate(256,240)" fill="none" stroke="#ffffff" stroke-width="18" stroke-linecap="round" stroke-linejoin="round">
    <path d="M-20,-100 C-80,-100 -120,-60 -120,-10 C-120,20 -100,45 -75,55 C-95,70 -100,95 -80,115 C-60,135 -30,130 -20,110"/>
    <path d="M-20,-100 C-50,-85 -70,-50 -70,-10 C-70,30 -50,60 -20,70"/>
    <path d="M20,-100 C80,-100 120,-60 120,-10 C120,20 100,45 75,55 C95,70 100,95 80,115 C60,135 30,130 20,110"/>
    <path d="M20,-100 C50,-85 70,-50 70,-10 C70,30 50,60 20,70"/>
    <line x1="0" y1="-100" x2="0" y2="110"/>
    <circle cx="-70" cy="-10" r="8" fill="#ffffff" stroke="none"/>
    <circle cx="70" cy="-10" r="8" fill="#ffffff" stroke="none"/>
    <circle cx="-45" cy="50" r="8" fill="#ffffff" stroke="none"/>
    <circle cx="45" cy="50" r="8" fill="#ffffff" stroke="none"/>
    <circle cx="0" cy="-50" r="8" fill="#ffffff" stroke="none"/>
    <circle cx="0" cy="30" r="8" fill="#ffffff" stroke="none"/>
    <line x1="-70" y1="-10" x2="0" y2="-50" stroke-width="10" opacity="0.4"/>
    <line x1="70" y1="-10" x2="0" y2="-50" stroke-width="10" opacity="0.4"/>
    <line x1="-70" y1="-10" x2="0" y2="30" stroke-width="10" opacity="0.4"/>
    <line x1="70" y1="-10" x2="0" y2="30" stroke-width="10" opacity="0.4"/>
    <line x1="-45" y1="50" x2="0" y2="30" stroke-width="10" opacity="0.4"/>
    <line x1="45" y1="50" x2="0" y2="30" stroke-width="10" opacity="0.4"/>
  </g>
  <text x="256" y="430" text-anchor="middle" font-family="system-ui,-apple-system,sans-serif" font-weight="800" font-size="72" fill="#ffffff" letter-spacing="8">LLM</text>
</svg>
